<?xml version="1.0" standalone="no"?>
<svg viewBox="0 0 200 200" xmlns="http://www.w3.org/2000/svg">
  <path fill="#9EF0F0" d="M43.1,-72.6C51.4,-61.7,50.6,-42.2,54,-27C57.3,-11.7,64.7,-0.7,64.3,10C64,20.7,55.9,31.1,46.3,37.5C36.7,44,25.5,46.5,13.6,53.1C1.7,59.7,-11.1,70.4,-20.4,68.2C-29.7,66.1,-35.7,51.1,-42.2,39.1C-48.6,27,-55.6,18,-56.3,8.5C-57.1,-1,-51.6,-11,-47.3,-22C-43,-33,-39.8,-45,-32.1,-56.2C-24.4,-67.3,-12.2,-77.6,2.6,-81.6C17.4,-85.7,34.8,-83.4,43.1,-72.6Z" transform="translate(100 100)" />
</svg>
